<svg width="192" height="254" viewBox="0 0 192 254" fill="none" xmlns="http://www.w3.org/2000/svg">
<path d="M53.8836 253.307C34.874 253.307 16.446 243.095 6.79082 225.181C-6.32907 200.76 1.73564 170.029 25.1542 155.209C25.2919 155.125 25.4324 155.041 25.5757 154.968C27.4668 153.987 29.313 152.978 31.1648 151.93C29.7963 151.146 28.4334 150.371 27.0509 149.598C12.6637 141.292 3.83189 129.608 1.43777 115.771C-1.69538 97.2588 -1.68695 73.8628 26.4074 56.9663C48.0079 44.0543 70.1423 31.4149 91.5517 19.1886C98.6525 15.1338 105.759 11.0761 112.866 6.99884C127.699 -1.45364 146.015 -1.79365 161.861 6.07435C177.855 14.0154 188.75 28.9815 191.009 46.1084C194.285 67.9393 183.366 89.7899 163.816 100.384C162.555 101.097 161.33 101.8 160.127 102.494C161.276 103.18 162.42 103.851 163.575 104.503C179.634 113.54 189.772 128.905 191.391 146.65C192.987 164.196 185.903 180.915 171.957 192.523C167.506 196.14 162.614 198.897 157.885 201.56C156.516 202.33 155.145 203.103 153.796 203.893C131.867 216.67 105.838 231.774 79.0275 246.942C71.0218 251.258 62.3923 253.307 53.8836 253.307ZM30.9653 164.837C12.6637 176.565 6.38899 200.681 16.6905 219.854C27.7253 240.322 53.2457 248.069 73.5958 237.101C100.249 222.02 126.238 206.936 148.134 194.179C149.53 193.364 150.949 192.566 152.368 191.762C156.89 189.216 161.161 186.811 164.822 183.835C175.832 174.674 181.452 161.473 180.199 147.665C178.923 133.66 170.853 121.492 158.056 114.29C155.993 113.124 153.984 111.916 151.899 110.66C150.135 109.598 148.311 108.499 146.349 107.366C144.635 106.377 143.568 104.559 143.537 102.578C143.509 100.597 144.526 98.7481 146.209 97.7112C150.137 95.2918 154.001 93.0157 158.373 90.5429C173.865 82.1495 182.472 64.941 179.881 47.6736C178.097 34.1631 169.498 22.4117 156.862 16.137C144.371 9.93529 130.004 10.1657 118.446 16.7523C111.348 20.8268 104.236 24.8873 97.1267 28.9449C75.7679 41.1431 53.6785 53.7572 32.1876 66.6017C14.3553 77.3275 8.65104 91.0234 12.5176 113.869C14.3441 124.44 21.105 133.176 32.6063 139.816C36.6864 142.104 40.6654 144.422 45.1389 147.075C46.8418 148.083 47.8899 149.915 47.8955 151.894C47.9011 153.875 46.8642 155.712 45.167 156.73C40.2635 159.68 35.8013 162.324 30.9653 164.837Z" fill="white"/>
<path d="M72.6488 168.866C71.6794 168.866 70.7099 168.616 69.8416 168.113C68.0994 167.11 67.026 165.253 67.026 163.243V91.4984C67.026 89.4893 68.0966 87.6347 69.836 86.6315C71.5754 85.6284 73.7194 85.6284 75.456 86.6315L137.515 122.423C139.254 123.426 140.325 125.277 140.328 127.287C140.33 129.296 139.26 131.148 137.526 132.156L75.4672 168.11C74.5933 168.616 73.6211 168.866 72.6488 168.866ZM78.2688 101.229V153.495L123.476 127.303L78.2688 101.229Z" fill="white"/>
</svg>
